<?xml version="1.0" standalone="no"?>
<!DOCTYPE svg PUBLIC "-//W3C//DTD SVG 20010904//EN"
 "http://www.w3.org/TR/2001/REC-SVG-20010904/DTD/svg10.dtd">
<svg version="1.0" xmlns="http://www.w3.org/2000/svg"
 width="24.000000pt" height="24.000000pt" viewBox="0 0 24.000000 24.000000"
 preserveAspectRatio="xMidYMid meet">

<g transform="translate(0.000000,24.000000) scale(0.100000,-0.100000)"
fill="#000000" stroke="none">
<path d="M104 209 c-10 -17 13 -36 27 -22 12 12 4 33 -11 33 -5 0 -12 -5 -16
-11z"/>
<path d="M85 159 c-10 -15 4 -99 16 -99 5 0 9 9 9 20 0 11 5 20 10 20 6 0 10
-9 10 -20 0 -38 19 -20 25 24 9 54 2 66 -35 66 -16 0 -32 -5 -35 -11z"/>
<path d="M33 64 c-3 -8 -1 -20 5 -26 16 -16 112 -22 145 -9 29 11 36 38 12 48
-20 7 -33 -6 -16 -16 10 -6 9 -10 -4 -15 -25 -9 -98 -7 -115 4 -10 6 -11 10
-2 10 6 0 12 5 12 10 0 16 -30 11 -37 -6z"/>
</g>
</svg>
